# xmcd
#
# Track frame offsets:
#	150
#	17646
#	30742
#	44235
#	57818
#	67401
#	76665
#	87533
#	101423
#	116157
#	126972
#	134206
#	149299
#	159182
#	167445
#	179066
#	189854
#	200299
#
# Disc length: 2810 seconds
#
# Revision: 1
# Processed by: cddbd v1.5.2PL0 Copyright (c) Steve Scherf et al.
# Submitted via: audiograbber 1.83.01
#
DISCID=040af812
DTITLE=jimmie driftwood - six classic albums cd1
DYEAR=2014
DGENRE=Country
TTITLE0=the battle of new orleans
TTITLE1=unfortunate man
TTITLE2=fair rosamond's bower
TTITLE3=soldier's joy
TTITLE4=country boy
TTITLE5=i'm too young to marry
TTITLE6=pretty mary
TTITLE7=sailor man
TTITLE8=zelma lee
TTITLE9=rattlesnake song
TTITLE10=old joe clark
TTITLE11=tennessee stud
TTITLE12=razorback steak
TTITLE13=first covered wagon
TTITLE14=the maid of argenta
TTITLE15=bunker hill
TTITLE16=song of the cowboys
TTITLE17=peter francisco
EXTD=
EXTT0=
EXTT1=
EXTT2=
EXTT3=
EXTT4=
EXTT5=
EXTT6=
EXTT7=
EXTT8=
EXTT9=
EXTT10=
EXTT11=
EXTT12=
EXTT13=
EXTT14=
EXTT15=
EXTT16=
EXTT17=
PLAYORDER=
